<?xml version="1.0" encoding="utf-8"?>
<!-- Generator: Adobe Illustrator 24.0.2, SVG Export Plug-In . SVG Version: 6.00 Build 0)  -->
<svg version="1.1" id="レイヤー_1" xmlns="http://www.w3.org/2000/svg" xmlns:xlink="http://www.w3.org/1999/xlink" x="0px"
	 y="0px" viewBox="0 0 700 700" style="enable-background:new 0 0 700 700;" xml:space="preserve">
<style type="text/css">
	.st0{fill:#FFB5DB;}
	.st1{fill:#C7E8FF;}
	.st2{fill:#FFC7F0;}
	.st3{fill:#777AC7;}
	.st4{fill:#FFA8D9;}
	.st5{fill:#FFE8D9;}
	.st6{fill:#FF9CBF;}
	.st7{fill:#FF9CBA;}
	.st8{fill:#FFABCC;}
	.st9{fill:#FFFFB5;}
	.st10{fill:#FFFFFF;}
</style>
<g>
	<circle class="st0" cx="350" cy="350" r="350"/>
	<g>
		<g>
			<g>
				<path class="st1" d="M294.07,478.73c-12.72,20.02-41.39,31.65-66.01,23c-27.35-9.62-29.64-40.97-32.2-57.9
					c-3.52-23.27-23.81-42.75-49.24-24.62c-29.07,20.72-36.13,78.61,0,110.38c37.43,32.92,119.31,37.25,161.25-30.03
					C340.32,447.5,308.65,463,294.07,478.73z"/>
				<path class="st1" d="M507.8,546.64c1.89,13.26,10.42,30.71,16.91,38.42c6.49,7.71,24.73,25.22,4.06,30.71
					c-16.82,4.46-37.02-4.01-42.75-19.89c-6.76-18.74-1.49-40.04,2.98-49.24C493.47,537.44,504.82,537.08,507.8,546.64z"/>
				<path class="st1" d="M337.85,494.93c-8.12,11.54-21.82,25.07-31.02,33.91c-9.2,8.84-18.22,19.3-11.18,30.48
					c3.52,5.59,10.19,7.94,17.81,5.16c7.62-2.77,16.19-10.66,23.49-25.55c7.31-14.88,10.97-24.35,13.03-31.2
					c2.06-6.85,2.51-11.09,3.38-15.52C355.89,479.42,344.34,485.16,337.85,494.93z"/>
				<path class="st1" d="M387.5,504.56c-1.56-8.79-9.53-3.65-14,5.21c-5.66,11.26-15.78,24.36-22.24,34.29
					c-4.5,6.92-8.33,14.22-8.98,20.61c-0.54,5.34,1.59,9.9,5.69,13.53c4.56,4.03,11.17,4.89,17.27,1.09
					c6.1-3.8,11.58-13.13,15.71-27.34c3.93-13.73,5.7-24.33,7.18-31.7c0.07-0.34,0.14-0.68,0.2-1.02
					C389.63,512.03,388.09,507.92,387.5,504.56z"/>
				<path class="st1" d="M424.7,516.87c-2.34-4.92-9.58-1.01-12.81,6.49c-4.16,10.4-11.52,22.32-16.3,32.42
					c-4.04,8.54-7.07,17.03-6.82,23.7c0.23,6.17,3.89,10.73,8.78,13.44c5.14,2.85,11.59,2.73,16.45-1.52
					c4.85-4.25,7.97-14.41,10.11-27.47c2.1-12.81,2.75-24.52,4.19-32.34c0.07-0.35,0.12-0.69,0.18-1.03
					C429.6,523.16,427.32,518.94,424.7,516.87z"/>
				<path class="st1" d="M450.99,533.98c-2.98,9.49-7.67,20.22-11.41,30.35c-3.74,10.13-6.54,19.64-5.73,26.67
					c0.81,7.03,5.73,11.91,11.38,13.87c5.66,1.96,12.06,1.01,15.85-3.59c3.79-4.6,4.91-15.65,5.52-27.59
					c0.61-11.95,0.7-24.8,2.41-33.01c1.71-8.21-1.71-12.94-6.1-14.09C458.53,525.45,453.17,527.87,450.99,533.98z"/>
				<path class="st1" d="M343.19,523.73c-33.44-13.82-81.17-38.38-77.79-91.5c4.4-69.23,92.48-136.17,186.65-112.89
					c100.22,24.77,128.38,109.8,123.87,167.79c-4.5,57.99-43.92,75.96-84.83,75.26C448.21,561.66,385.42,541.18,343.19,523.73z"/>
			</g>
			<path class="st2" d="M394.67,315.75c-3.92,3.79-4.89,8.69-2.78,13.35c3.19,7.04,13.33,12.29,21.87,9.2
				c-5.26,2.44-10.13,13.42-2.82,21.87c7.45,8.59,23.37,11.07,33.78,6.1c9.78-4.67,10.51-12.86,8.07-19.05
				c3.1,6.94,11.43,12.36,21.3,10.98c12.76-1.78,16.52-14.92,12.2-23.37c-0.54-1.35-1.12-2.81-1.7-4.32
				c-9.89-4.46-20.71-8.24-32.55-11.16C432.42,314.49,413.06,313.56,394.67,315.75z"/>
			<path class="st3" d="M432.66,376.23c-10.46,0-21.12-4.02-27.34-11.2c-4.74-5.47-6.52-12.33-5.02-19.32
				c0.03-0.14,0.06-0.28,0.09-0.41c-6.88-2.32-12.66-7.37-15.27-13.13c-2.26-4.98-2.33-10.39-0.22-15.24
				c2.56-5.86,8.14-10.47,15.71-12.99c3.89-1.3,8.1,0.81,9.4,4.7c1.3,3.89-0.81,8.1-4.7,9.4c-3.47,1.16-5.95,2.92-6.79,4.84
				c-0.27,0.62-0.56,1.63,0.13,3.15c1.69,3.72,7.94,6.95,12.56,5.28c3.74-1.36,7.89,0.48,9.4,4.15c1.52,3.68-0.13,7.9-3.74,9.57
				c-0.37,0.23-1.73,1.75-2.13,4.19c-0.36,2.23,0.24,4.27,1.8,6.07c5.1,5.88,17.23,7.95,24.96,4.26c1.7-0.81,6.86-3.27,4.36-9.62
				c-1.48-3.76,0.31-8.01,4.04-9.58c3.72-1.56,8.02,0.13,9.67,3.83c1.78,3.99,6.99,7.56,13.49,6.65c6-0.84,7.2-5.5,7.44-7.46
				c0.49-4.08,4.18-6.99,8.27-6.49c4.07,0.49,6.98,4.19,6.49,8.27c-1.31,10.87-9.21,18.88-20.14,20.4
				c-5.74,0.8-11.39-0.13-16.29-2.43c-2.11,3.86-5.65,7.33-10.92,9.85C443.29,375.18,438,376.23,432.66,376.23z"/>
			<g>
				<path class="st3" d="M352.29,422.1c-6.4-1.85-14.29,2.68-17.67,8.24c-2.44,4.02-3.93,13.21,4.01,17.59
					c6.12,3.38,15.17-0.65,18.39-9.33C359.35,432.33,358.62,423.93,352.29,422.1z"/>
				<path class="st3" d="M343.39,450.24c-1.89,0-3.69-0.45-5.3-1.34c-3.11-1.72-5.22-4.34-6.08-7.6c-1.13-4.24,0.02-8.86,1.65-11.55
					c3.53-5.81,11.76-10.8,18.93-8.73l0,0c2.37,0.69,4.24,2.26,5.39,4.55c1.79,3.56,1.83,8.7,0.08,13.41
					c-1.79,4.84-5.54,8.72-10.02,10.38C346.48,449.95,344.91,450.24,343.39,450.24z M349.19,422.79c-5.3,0-10.97,3.78-13.61,8.13
					c-1.39,2.29-2.37,6.22-1.41,9.82c0.72,2.69,2.4,4.78,5,6.22c2.33,1.28,5.2,1.4,8.1,0.33c3.88-1.44,7.14-4.83,8.71-9.07
					c1.52-4.09,1.52-8.65,0.02-11.63c-0.88-1.75-2.24-2.9-4.02-3.41l0,0C351.07,422.91,350.14,422.79,349.19,422.79z"/>
			</g>
			<g>
				<path class="st3" d="M459,459.31c5.56,3.67,7.24,12.6,5.2,18.78c-1.47,4.47-7.5,11.57-15.99,8.37
					c-6.54-2.46-9.35-11.97-4.84-20.05C446.63,460.59,453.5,455.68,459,459.31z"/>
				<path class="st3" d="M452.42,488.37c-1.52,0-3.06-0.29-4.6-0.87c-3.11-1.17-5.53-3.75-6.81-7.27
					c-1.64-4.49-1.12-9.86,1.39-14.36c2.45-4.39,6.38-7.7,10.25-8.65c2.49-0.61,4.9-0.21,6.96,1.15l0,0
					c6.22,4.1,7.78,13.61,5.65,20.06c-0.99,3-3.76,6.87-7.71,8.76C455.92,487.98,454.19,488.37,452.42,488.37z M454.91,459.18
					c-0.56,0-1.14,0.07-1.73,0.22c-3.24,0.79-6.71,3.76-8.83,7.57c-2.2,3.94-2.67,8.62-1.24,12.51c1.06,2.9,3.02,5.01,5.51,5.95
					c2.78,1.05,5.47,0.97,7.98-0.23c3.37-1.61,5.72-4.9,6.56-7.45c1.88-5.7,0.41-14.09-4.76-17.5l0,0
					C457.32,459.53,456.15,459.18,454.91,459.18z"/>
			</g>
			<path class="st3" d="M383.56,496.87c-1.43,0-2.84-0.28-4.2-0.93c-9.57-4.56-8.92-21.73-8.91-21.9c0.18-2.46,2.34-4.29,4.78-4.12
				c2.46,0.18,4.3,2.32,4.12,4.78c-0.23,3.17,1.05,11.86,3.85,13.2c2.14,1.02,9.51-4.78,12.38-9.13c1.35-2.06,4.12-2.62,6.18-1.27
				c2.06,1.35,2.63,4.12,1.27,6.18C400.35,487.74,391.66,496.87,383.56,496.87z"/>
			<path class="st4" d="M303.37,459.56c-0.73,0-1.48-0.14-2.19-0.45c-2.83-1.21-4.14-4.49-2.93-7.32c0.4-1.17,0.69-4.29,0.73-7.16
				c-0.8,0.81-1.56,1.63-2.15,2.25c-3.99,4.25-6.84,7.34-10.79,7.18c-1.87-0.07-3.63-0.95-4.81-2.41
				c-4.23-5.22-2.89-21.09,1.12-25.35c2.11-2.24,5.64-2.35,7.88-0.24c2.13,2,2.33,5.28,0.54,7.53c-0.4,0.88-0.71,2.56-0.88,4.39
				c4.63-4.88,9.44-9.37,14.96-7.11c1.25,0.51,2.96,1.67,4.02,4.27c2.09,5.11,1.27,17.19-0.38,21.03
				C307.59,458.29,305.53,459.56,303.37,459.56z M290.18,445.07L290.18,445.07L290.18,445.07z M290.47,433.94
				C290.47,433.94,290.47,433.94,290.47,433.94C290.47,433.94,290.47,433.94,290.47,433.94z M290.84,433.46L290.84,433.46z"/>
			<path class="st4" d="M498.73,533.47c-0.79,0-1.59-0.17-2.36-0.53c-2.79-1.3-3.99-4.62-2.69-7.41c0.47-1.28,0.79-4.8,0.78-7.79
				c-1.23,1.1-2.49,2.34-3.39,3.22c-4.24,4.15-7.27,7.16-11.21,7c-1.83-0.07-3.51-0.86-4.71-2.23c-4.68-5.3-3.21-21.39,1.21-25.7
				c2.21-2.15,5.73-2.1,7.88,0.1c2.04,2.09,2.1,5.37,0.23,7.54c-0.48,0.99-0.83,3.03-0.99,5.12c5.22-5.11,10.63-10.3,16.53-8.08
				c1.35,0.51,3.2,1.7,4.33,4.49c2.18,5.36,1.24,17.2-0.56,21.03C502.84,532.28,500.83,533.47,498.73,533.47z M483.83,518.83
				L483.83,518.83L483.83,518.83z M484.14,508.03C484.14,508.03,484.14,508.03,484.14,508.03
				C484.14,508.03,484.14,508.03,484.14,508.03z M484.53,507.55L484.53,507.55z"/>
			<path class="st3" d="M519.45,624.4c-17.7,0-34.78-10.38-40.41-26c-3.76-10.42-4.13-20.94-3.33-29.53
				c-0.47-0.05-0.95-0.1-1.43-0.15c-0.07,1.79-0.15,3.58-0.24,5.35c-0.78,15.26-2.25,25.93-7.21,31.94
				c-5.53,6.71-14.96,9.02-24.02,5.88c-9.01-3.12-15.27-10.8-16.33-20.04c-0.24-2.11-0.24-4.34-0.04-6.65
				c-2.07,5.33-4.55,9.15-7.55,11.78c-6.91,6.05-16.7,7-24.95,2.42c-7.7-4.27-12.29-11.43-12.6-19.65
				c-0.13-3.43,0.36-7.21,1.51-11.48c-3.85,8.25-8.43,14.05-13.68,17.32c-8.57,5.33-18.82,4.62-26.12-1.83
				c-6.11-5.4-8.93-12.26-8.16-19.84c0.41-4.03,1.73-8.37,4.07-13.27c-8.2,13.11-16.78,18.57-22.96,20.82
				c-10.63,3.87-21.08,0.65-26.65-8.19c-10.96-17.43,5.36-33.11,12.32-39.8c2.31-2.22,5.03-4.85,7.94-7.75
				c-0.94-0.55-1.87-1.1-2.78-1.65c-19.45,25.3-46.94,41.26-78.14,45.19c-32.15,4.05-65.49-5.18-86.98-24.09
				c-18.43-16.21-28.25-40.28-26.93-66.04c1.21-23.63,11.5-44.56,27.52-55.98c12.12-8.64,25-10.77,36.27-5.99
				c12.69,5.38,22.13,19,24.63,35.55c0.2,1.31,0.39,2.69,0.6,4.15c2.41,17.07,5.7,40.46,26.71,47.84
				c14.47,5.09,31.74,2.15,44.92-7.22c-12.92-16.12-18.79-34.83-17.46-55.73c2.13-33.49,22.99-67.84,55.8-91.89
				c40.44-29.64,91.49-39.75,140.06-27.75l0,0c46.72,11.55,83.3,37.42,105.79,74.82c17.75,29.51,26.39,66.24,23.7,100.76
				c-3.26,41.92-24.9,69.56-61.28,78.77c2.92,6.12,6.05,11.07,8.34,13.79c0.61,0.72,1.33,1.54,2.11,2.42
				c6.3,7.15,15.83,17.95,12.65,28.47c-1.74,5.74-6.61,9.7-14.48,11.79C526.98,623.93,523.2,624.4,519.45,624.4z M467.18,552.9
				c0.35,0,0.7,0.02,1.05,0.07c5.79,0.82,11.3,1.4,16.39,1.71c2.13,0.13,4.1,1.17,5.41,2.86c1.31,1.69,1.83,3.86,1.43,5.95
				c-1.46,7.63-2.37,19,1.55,29.86c4.25,11.77,20.06,18.88,33.85,15.22c2.87-0.76,3.84-1.58,4.07-1.8
				c0.18-2.05-3.04-6.84-9.57-14.25c-0.86-0.98-1.66-1.88-2.33-2.68c-5.03-5.98-10.52-16.03-14.32-26.23
				c-0.78-2.09-0.58-4.41,0.55-6.34c1.12-1.92,3.05-3.24,5.25-3.59c35.46-5.64,54.98-28.22,58-67.13
				c3.7-47.66-17.04-134.98-118.25-160c-44.28-10.95-90.83-1.72-127.7,25.31c-29.3,21.47-47.9,51.69-49.75,80.84
				c-1.24,19.51,4.86,36.04,18.64,50.53c1.36,1.43,2.09,3.34,2.04,5.32c-0.05,1.97-0.89,3.84-2.32,5.2
				c-17.52,16.59-43.88,22.62-65.59,14.98c-29.54-10.39-33.9-41.31-36.5-59.79c-0.2-1.41-0.39-2.75-0.58-4
				c-1.71-11.31-7.88-20.76-15.73-24.09c-6.52-2.76-13.87-1.28-21.85,4.41c-12.18,8.68-20.34,25.78-21.31,44.63
				c-1.08,21.2,6.9,40.92,21.9,54.12c18.39,16.18,47.26,24.03,75.31,20.5c20.69-2.61,49.98-12.47,71.95-44.66
				c2.3-3.37,6.89-4.26,10.28-1.98c4.82,3.24,10.24,6.42,16.11,9.45c2.08,1.07,3.53,3.06,3.92,5.37c0.39,2.31-0.33,4.66-1.94,6.36
				c-5.55,5.83-11.03,11.16-15.18,15.15c-12.12,11.65-12.83,16.73-10.04,21.17c2.41,3.82,6.66,2.98,8.98,2.14
				c6.69-2.44,13.74-10.39,19.36-21.84c2.61-5.31,4.89-10.23,6.78-14.6c1.61-3.73,5.91-5.47,9.66-3.93
				c5.29,2.18,10.81,4.37,16.42,6.5c2.13,0.81,3.78,2.56,4.45,4.75c0.68,2.18,0.31,4.55-0.99,6.43l-2.26,3.26
				c-2.5,3.59-4.86,6.99-6.85,10.03c-4.76,7.33-7.39,13.15-7.81,17.3c-0.17,1.72-0.03,4.34,3.22,7.21c2.36,2.08,5.43,2.21,8.42,0.35
				c2.12-1.32,7.59-6.22,12.5-23.11c1.16-4.04,2.2-8.1,3.2-12.39c0.47-2.05,1.79-3.8,3.63-4.82c1.84-1.02,4.02-1.22,6.01-0.54
				c5.73,1.95,11.4,3.8,16.83,5.48c2.12,0.66,3.83,2.23,4.67,4.28c0.84,2.05,0.72,4.37-0.33,6.33c-1.89,3.54-3.88,7.28-5.52,10.74
				c-4.22,8.92-6.28,15.73-6.11,20.24c0.14,3.77,2.77,6.01,4.96,7.22c1.04,0.58,4.69,2.24,7.95-0.61c1.36-1.19,4.85-5.83,7.67-23.08
				c0.57-3.48,1.09-7.25,1.63-11.86c0.25-2.14,1.42-4.06,3.19-5.27c1.78-1.21,3.99-1.59,6.07-1.05c5.71,1.49,11.35,2.86,16.77,4.05
				c2.12,0.47,3.93,1.84,4.96,3.76c1.02,1.92,1.15,4.19,0.36,6.21c-1.06,2.69-2.17,5.55-3.2,8.33c-2.62,7.08-6.01,17.19-5.32,23.25
				c0.61,5.28,5.08,7.23,6.44,7.7c2.38,0.82,5.81,0.98,7.68-1.29c1.29-1.57,3-6.87,3.83-23.25c0.14-2.78,0.26-5.6,0.37-8.41
				c0.07-1.64,0.13-3.28,0.2-4.9c0.09-2.09,1.06-4.05,2.68-5.39C463.78,553.5,465.46,552.9,467.18,552.9z M432.07,560.99
				c-0.19,1.34-0.39,2.63-0.6,3.88c0.37-1.05,0.75-2.09,1.13-3.12c0.07-0.19,0.14-0.39,0.21-0.58
				C432.57,561.12,432.32,561.06,432.07,560.99z M389.53,548.76c-0.46,1.75-0.94,3.49-1.44,5.23c-0.07,0.26-0.15,0.51-0.23,0.77
				c0.32-0.71,0.66-1.43,1-2.16c0.55-1.15,1.12-2.32,1.71-3.49C390.23,548.99,389.88,548.87,389.53,548.76z M347.73,533.59
				c-1.27,2.74-2.64,5.62-4.11,8.62c-0.01,0.01-0.01,0.02-0.02,0.03c0.46-0.73,0.93-1.48,1.42-2.24c1.23-1.89,2.57-3.86,3.98-5.91
				C348.58,533.93,348.15,533.76,347.73,533.59z"/>
		</g>
		<g>
			<g>
				<path class="st5" d="M63.44,230.1c-7.88,24.68-12.2,80.8-9.29,105.57c28.72,45.89,54.33,88.59,62.97,97.97
					c13.91,3.66,44.48-4.13,54.99-22.9c-7.69-39.98-21.58-102.29-25.53-116.93C127.63,273.64,86.34,240.89,63.44,230.1z"/>
				<path class="st3" d="M124.92,441.94c-3.58,0-6.87-0.37-9.69-1.11c-1.37-0.36-2.62-1.11-3.58-2.16
					c-7.09-7.71-22.74-32.94-44.39-67.86c-6.18-9.97-12.71-20.5-19.41-31.21c-0.58-0.93-0.95-1.98-1.08-3.08
					c-2.95-25.12,1.17-82.34,9.59-108.7c0.65-2.04,2.15-3.7,4.11-4.55c1.96-0.85,4.2-0.82,6.13,0.09
					c23.85,11.24,66.22,44.94,85.39,65.35c0.84,0.89,1.44,1.98,1.76,3.16c4.01,14.9,17.92,77.31,25.65,117.46
					c0.33,1.72,0.04,3.51-0.81,5.04C168.4,432.57,142.96,441.94,124.92,441.94z M121.1,426.86c11.18,1.53,33.74-4.17,43.15-17.58
					c-7.47-38.4-20-94.75-24.37-111.73c-16.63-17.27-49.58-43.75-71.69-56.54c-6.04,26.23-8.95,70.69-6.83,92.16
					c6.39,10.22,12.62,20.27,18.54,29.81C98.1,392.35,114,418,121.1,426.86z"/>
			</g>
			<g>
				<path class="st3" d="M63.44,230.1c-3.14,9.82-5.71,24.62-7.48,40.44c10.02,4.46,35.13-1.53,41.86-18.67v0
					C85.14,242.53,72.77,234.49,63.44,230.1z"/>
				<path class="st3" d="M64.08,279.39c-4.2,0-8.05-0.68-11.15-2.06c-2.96-1.32-4.73-4.4-4.36-7.62c1.38-12.3,3.85-29.55,7.79-41.88
					c0.65-2.04,2.15-3.7,4.11-4.55c1.96-0.85,4.2-0.82,6.13,0.09c11.63,5.48,25.79,15.27,35.62,22.52c2.71,2,3.74,5.57,2.51,8.7
					c-3.58,9.12-11.5,16.58-22.3,21.01C76.32,278.11,69.86,279.39,64.08,279.39z M68.2,241.03c-1.49,6.55-2.87,14.54-4.03,23.49
					c3.41-0.02,7.9-0.74,12.63-2.67c3.03-1.24,7.84-3.71,11.25-7.87C80.74,248.78,73.99,244.37,68.2,241.03z"/>
			</g>
			<g>
				<path class="st6" d="M128.47,319.62c-4.88-1.5-18.21-6.43-29.19-9.85c-2.72,6.38-7.51,19.89-10.32,28.15
					c-6.29,0.66-32.56-1.32-34.82-2.25c28.72,45.89,54.33,88.59,62.97,97.97c13.91,3.66,44.48-4.13,54.99-22.9
					c-7.69-39.98-21.58-102.29-25.53-116.93C142.78,300.85,137.25,308.92,128.47,319.62z"/>
				<path class="st3" d="M124.92,441.94c-3.58,0-6.87-0.37-9.69-1.11c-1.37-0.36-2.62-1.11-3.58-2.16
					c-7.09-7.71-22.74-32.94-44.39-67.86c-6.18-9.97-12.71-20.5-19.41-31.21c-1.72-2.74-1.46-6.28,0.63-8.75
					c1.96-2.31,5.12-3.19,7.96-2.26c3.1,0.65,18.66,1.87,27.18,2.02c2.69-7.72,6.45-18.2,8.83-23.76c1.5-3.51,5.41-5.32,9.05-4.18
					c6.56,2.04,13.9,4.6,19.79,6.66c1.66,0.58,3.23,1.13,4.63,1.61c6.33-7.98,10.86-14.62,14.12-20.66c1.45-2.68,4.38-4.2,7.4-3.85
					c3.02,0.35,5.52,2.51,6.32,5.45c4.01,14.9,17.92,77.31,25.65,117.46c0.33,1.72,0.04,3.51-0.81,5.04
					C168.4,432.57,142.96,441.94,124.92,441.94z M121.1,426.86c11.18,1.53,33.74-4.17,43.15-17.58
					c-5.94-30.55-15.09-72.45-20.78-96.86c-2.69,3.7-5.76,7.65-9.26,11.91c-1.91,2.33-5.05,3.28-7.93,2.39
					c-2.15-0.66-5.56-1.85-9.89-3.36c-3.86-1.35-8.35-2.91-12.78-4.39c-2.64,6.96-5.8,15.99-7.62,21.34
					c-0.94,2.74-3.38,4.69-6.26,4.99c-3.07,0.32-12.41,0.02-21.18-0.59c3.88,6.23,7.67,12.34,11.34,18.26
					C98.1,392.35,114,418,121.1,426.86z M56.56,328.64c0.15,0.05,0.3,0.11,0.45,0.17C56.9,328.76,56.75,328.7,56.56,328.64z"/>
			</g>
			<g>
				<path class="st7" d="M54.15,335.67c28.72,45.89,54.33,88.59,62.97,97.97c5.86,1.54,14.69,1.04,23.72-1.45
					c-15.69-25.61-45.81-79.53-51.87-94.27C82.68,338.58,56.4,336.61,54.15,335.67z"/>
				<path class="st3" d="M124.95,441.95c-3.57,0-6.87-0.37-9.72-1.12c-1.38-0.36-2.62-1.11-3.58-2.16
					c-7.09-7.71-22.74-32.94-44.39-67.86c-6.18-9.97-12.71-20.5-19.41-31.21c-1.72-2.74-1.46-6.28,0.63-8.75
					c1.96-2.31,5.12-3.19,7.96-2.26c3.83,0.8,26.62,2.47,31.75,1.93c3.28-0.34,6.39,1.52,7.64,4.56
					c5.71,13.87,35.01,66.58,51.34,93.22c1.22,1.99,1.43,4.44,0.58,6.61c-0.86,2.17-2.69,3.81-4.94,4.44
					C136.58,441.08,130.43,441.95,124.95,441.95z M121.1,426.85c2.06,0.27,4.72,0.34,7.87,0.04c-14.6-24.6-36.51-63.84-44.79-81.46
					c-4.28-0.06-10.06-0.32-15.62-0.71c3.88,6.23,7.67,12.34,11.34,18.26C98.09,392.34,113.99,417.98,121.1,426.85z M56.56,328.64
					c0.15,0.05,0.3,0.11,0.45,0.17C56.9,328.76,56.75,328.7,56.56,328.64z"/>
			</g>
			<g>
				<path class="st8" d="M172.11,410.74c-7.69-39.98-21.58-102.29-25.53-116.93c-3.8,7.04-9.33,15.1-18.11,25.81
					c9.97,26.84,22.5,74.83,30.61,104.47C164.49,420.54,169.11,416.09,172.11,410.74z"/>
				<path class="st3" d="M159.09,431.53c-0.89,0-1.77-0.16-2.62-0.48c-2.23-0.84-3.91-2.7-4.54-4.99
					c-1.21-4.44-2.53-9.29-3.92-14.42c-7.65-28.24-18.13-66.92-26.49-89.43c-0.92-2.48-0.46-5.26,1.22-7.3
					c8.03-9.79,13.54-17.62,17.32-24.63c1.45-2.68,4.38-4.2,7.4-3.85c3.02,0.35,5.52,2.51,6.32,5.45
					c4.01,14.9,17.92,77.31,25.65,117.46c0.33,1.72,0.04,3.51-0.81,5.04c-3.41,6.08-8.59,11.44-15.42,15.93
					C161.94,431.11,160.52,431.53,159.09,431.53z M136.89,321.03c8.27,23.3,17.75,58.29,25.46,86.72c0.27,1,0.54,1.99,0.81,2.97
					c0.39-0.48,0.76-0.96,1.1-1.45c-5.94-30.55-15.08-72.45-20.78-96.86C141.49,315.15,139.3,318.01,136.89,321.03z"/>
			</g>
		</g>
		<g>
			<g>
				<path class="st9" d="M155.86,192.65c-18.92,6.39-24.1,11.56-30.48,30.48c-6.38-18.92-11.56-24.1-30.48-30.48
					c18.92-6.38,24.1-11.56,30.48-30.48C131.76,181.09,136.94,186.27,155.86,192.65z"/>
				<path class="st3" d="M125.37,229.82c-2.87,0-5.42-1.83-6.34-4.55c-5.7-16.89-9.39-20.58-26.28-26.28
					c-2.72-0.92-4.55-3.47-4.55-6.34c0-2.87,1.83-5.42,4.55-6.34c16.89-5.7,20.58-9.39,26.28-26.28c0.92-2.72,3.47-4.55,6.34-4.55
					c2.87,0,5.42,1.83,6.34,4.55c5.7,16.89,9.39,20.58,26.28,26.28c2.72,0.92,4.55,3.47,4.55,6.34c0,2.87-1.83,5.42-4.55,6.34
					c-16.9,5.7-20.58,9.39-26.28,26.28C130.8,227.99,128.25,229.82,125.37,229.82z M111.85,192.65c5.94,3.44,10.09,7.58,13.53,13.53
					c3.44-5.94,7.58-10.09,13.53-13.53c-5.95-3.44-10.09-7.58-13.53-13.53C121.93,185.07,117.79,189.21,111.85,192.65z"/>
			</g>
			<g>
				<path class="st9" d="M192.96,224.92c-10.01,3.38-12.74,6.12-16.12,16.12c-3.38-10-6.11-12.74-16.12-16.12
					c10.01-3.38,12.74-6.11,16.12-16.12C180.22,218.8,182.95,221.54,192.96,224.92z"/>
				<path class="st3" d="M176.84,246.61L176.84,246.61c-2.39,0-4.52-1.53-5.28-3.79c-2.83-8.38-4.24-9.79-12.62-12.62
					c-2.27-0.76-3.79-2.89-3.79-5.28c0-2.39,1.53-4.52,3.79-5.28c8.38-2.83,9.79-4.24,12.62-12.62c0.77-2.27,2.89-3.79,5.28-3.79
					c2.39,0,4.52,1.53,5.28,3.79c2.83,8.38,4.24,9.79,12.62,12.62c2.27,0.77,3.79,2.89,3.79,5.28c0,2.39-1.53,4.52-3.79,5.28
					c-8.38,2.83-9.79,4.24-12.62,12.62C181.36,245.08,179.23,246.61,176.84,246.61z M173.35,224.92c1.32,1.02,2.46,2.17,3.49,3.49
					c1.03-1.32,2.17-2.46,3.49-3.49c-1.32-1.02-2.46-2.17-3.49-3.49C175.82,222.75,174.67,223.89,173.35,224.92z"/>
			</g>
		</g>
	</g>
	<g>
		<path class="st10" d="M364.27,266.33c-1.38,0-2.79-0.24-4.16-0.75c-10.74-3.97-31.94-8.01-48.99-11.25
			c-12.34-2.35-23-4.38-29.86-6.3c-4.56-1.27-7.94-5.1-8.64-9.78c-0.7-4.68,1.41-9.33,5.4-11.88c12.99-8.31,26.4-15.04,39.36-21.55
			c20.48-10.29,39.83-20,45.75-31.07c4.75-8.88,5.62-18.4,2.33-25.46c-3.89-8.33-12.8-11.78-19.6-13.2
			c-8.42-1.77-15.46,0.07-20.95,5.44c-6.58,6.44-8.92,16.05-8.08,20.5c1.22,6.51-3.06,12.78-9.57,14.01
			c-6.5,1.22-12.78-3.06-14.01-9.57c-2.57-13.68,3.54-30.98,14.87-42.08c11.24-11.01,26.39-15.19,42.66-11.78
			c17.18,3.6,30.12,13.03,36.42,26.54c6.56,14.07,5.5,31.17-2.92,46.92c-9.51,17.78-31.12,28.63-56.13,41.2
			c-3.28,1.65-6.59,3.31-9.9,5c18.18,3.47,38.16,7.38,50.18,11.82c6.22,2.3,9.39,9.2,7.09,15.41
			C373.73,263.33,369.15,266.33,364.27,266.33z"/>
		<path class="st10" d="M530.15,305.97c-21.74,0-41.49-13.16-50.91-30.05c-3.23-5.79-1.15-13.09,4.63-16.32
			c5.79-3.23,13.09-1.15,16.32,4.63c6.13,10.99,23.06,23.03,41.51,15.41c6.06-2.5,9.73-6.25,11.22-11.47
			c2.13-7.43-0.6-15.91-3.21-19.55c-3.01-4.2-5.13-7.16-22.43-10.25c-4.21-0.43-7.76-1.08-10.31-1.64
			c-6.3-1.38-10.37-7.49-9.23-13.84c1.14-6.34,7.09-10.65,13.48-9.76c3.51,0.49,6.74,0.99,9.73,1.52
			c10.36,0.89,19.55-0.87,25.55-5.09c3.9-2.74,8.14-8.47,8.22-14.57c0.07-5.48-3.27-10.77-9.93-15.71
			c-5.72-4.25-11.74-5.92-17.87-4.94c-7.57,1.2-14.19,6.2-17.14,10.34c-3.84,5.4-11.33,6.66-16.73,2.82
			c-5.4-3.84-6.66-11.33-2.82-16.73c5.78-8.13,17.47-17.69,32.94-20.14c12.56-1.99,24.99,1.25,35.93,9.38
			c16.43,12.2,19.73,25.93,19.61,35.29c-0.2,15.59-9.65,27.73-18.42,33.89c-1.16,0.81-2.34,1.56-3.53,2.25
			c0.83,1,1.65,2.07,2.46,3.19c6.5,9.06,11.11,24.98,6.77,40.13c-2.47,8.63-8.83,20.32-25.13,27.05
			C543.93,304.69,536.95,305.97,530.15,305.97z"/>
		<g>
			<path class="st10" d="M477.96,229.04c-0.58,0-1.16-0.06-1.75-0.18c-5.88-1.18-14.18-3.19-23.79-5.51
				c-17.01-4.11-38.18-9.22-53.33-11.46c-4.83-0.72-8.17-5.22-7.46-10.05c0.72-4.83,5.21-8.18,10.05-7.46
				c15.94,2.36,37.54,7.58,54.89,11.77c9.43,2.28,17.58,4.24,23.12,5.36c4.79,0.96,7.89,5.63,6.93,10.42
				C485.78,226.14,482.09,229.04,477.96,229.04z"/>
			<path class="st10" d="M430.56,259.66c-0.86,0-1.74-0.13-2.61-0.4c-4.67-1.44-7.29-6.4-5.85-11.07
				c6.19-20.05,13.6-57.51,17.08-77.8c0.82-4.82,5.41-8.05,10.22-7.23c4.82,0.82,8.05,5.4,7.23,10.22
				c-3.55,20.74-11.17,59.18-17.61,80.04C437.85,257.22,434.34,259.66,430.56,259.66z"/>
		</g>
	</g>
	<g>
		<path class="st3" d="M350.6,254.03c-1.38,0-2.79-0.24-4.16-0.75c-10.74-3.97-31.94-8.01-48.99-11.25
			c-12.34-2.35-23-4.38-29.86-6.3c-4.56-1.27-7.94-5.1-8.64-9.78c-0.7-4.68,1.41-9.33,5.4-11.88c12.99-8.31,26.4-15.04,39.36-21.55
			c20.48-10.29,39.83-20,45.75-31.07c4.75-8.88,5.62-18.4,2.33-25.46c-3.89-8.33-12.8-11.78-19.6-13.2
			c-8.41-1.77-15.46,0.07-20.95,5.44c-6.58,6.44-8.92,16.05-8.08,20.5c1.22,6.51-3.06,12.78-9.57,14.01
			c-6.5,1.22-12.78-3.06-14.01-9.57c-2.57-13.68,3.54-30.98,14.87-42.08c11.24-11.01,26.39-15.19,42.66-11.78
			c17.18,3.6,30.12,13.03,36.42,26.54c6.56,14.07,5.5,31.17-2.92,46.92c-9.51,17.78-31.12,28.63-56.13,41.2
			c-3.28,1.65-6.59,3.31-9.9,5c18.18,3.47,38.16,7.38,50.18,11.82c6.22,2.3,9.39,9.2,7.09,15.41
			C360.06,251.03,355.48,254.03,350.6,254.03z"/>
		<path class="st3" d="M516.48,293.67c-21.74,0-41.49-13.16-50.91-30.05c-3.23-5.79-1.15-13.09,4.63-16.32
			c5.79-3.23,13.09-1.15,16.32,4.63c6.13,10.99,23.06,23.03,41.51,15.41c6.06-2.5,9.73-6.25,11.22-11.47
			c2.13-7.43-0.6-15.91-3.21-19.55c-3.01-4.2-5.13-7.16-22.43-10.25c-4.21-0.43-7.76-1.08-10.31-1.64
			c-6.3-1.38-10.37-7.49-9.23-13.84c1.14-6.34,7.1-10.65,13.48-9.76c3.51,0.49,6.74,0.99,9.73,1.52
			c10.36,0.89,19.55-0.87,25.55-5.09c3.9-2.74,8.14-8.47,8.22-14.57c0.07-5.48-3.27-10.77-9.93-15.71
			c-5.73-4.25-11.74-5.91-17.87-4.94c-7.57,1.2-14.19,6.2-17.14,10.34c-3.84,5.4-11.33,6.66-16.73,2.82
			c-5.4-3.84-6.66-11.33-2.82-16.73c5.78-8.13,17.47-17.69,32.94-20.14c12.56-1.99,24.99,1.25,35.93,9.38
			c16.43,12.2,19.73,25.93,19.61,35.29c-0.2,15.59-9.65,27.73-18.42,33.89c-1.16,0.81-2.34,1.56-3.53,2.25
			c0.83,1,1.65,2.07,2.46,3.19c6.5,9.06,11.11,24.98,6.77,40.13c-2.47,8.63-8.83,20.32-25.13,27.05
			C530.26,292.38,523.27,293.67,516.48,293.67z"/>
		<g>
			<path class="st3" d="M464.29,216.74c-0.58,0-1.16-0.06-1.75-0.18c-5.88-1.18-14.18-3.19-23.79-5.51
				c-17.01-4.11-38.18-9.22-53.33-11.46c-4.83-0.72-8.17-5.22-7.46-10.05c0.72-4.83,5.22-8.18,10.05-7.46
				c15.94,2.36,37.54,7.58,54.89,11.77c9.43,2.28,17.58,4.24,23.12,5.36c4.79,0.96,7.89,5.63,6.93,10.42
				C472.11,213.83,468.41,216.74,464.29,216.74z"/>
			<path class="st3" d="M416.89,247.35c-0.86,0-1.74-0.13-2.61-0.4c-4.67-1.44-7.29-6.4-5.85-11.07
				c6.19-20.05,13.6-57.51,17.08-77.8c0.83-4.82,5.41-8.06,10.22-7.23c4.82,0.82,8.05,5.4,7.23,10.22
				c-3.55,20.74-11.17,59.18-17.61,80.04C424.17,244.91,420.67,247.35,416.89,247.35z"/>
		</g>
	</g>
</g>
</svg>
